<svg id="Layer_1" data-name="Layer 1" xmlns="http://www.w3.org/2000/svg" viewBox="0 0 501 501">
  <defs>
    <style>
      .cls-1 {
        fill: #333;
        stroke-width: 1.47px;
      }

      .cls-1, .cls-2 {
        stroke: #fff;
        stroke-miterlimit: 10;
      }

      .cls-2 {
        fill: #f2f5f5;
        stroke-width: 2.44px;
      }

      .cls-3 {
        font-size: 119.72px;
        fill: #f2f5f5;
        font-family: Raleway;
        font-weight: 700;
      }
    </style>
  </defs>
  <title>gear-logo</title>
  <g>
    <circle id="background" class="cls-1" cx="251" cy="251" r="250"/>
    <g id="framework-icon">
      <path id="gear" class="cls-2" d="M467,241H442a7,7,0,0,1-6-5,164,164,0,0,0-20-48,7,7,0,0,1,1-8l17-17a7,7,0,0,0,0-9l-38-38a7,7,0,0,0-9,0l-17,17a7,7,0,0,1-8,1,164,164,0,0,0-48-20,7,7,0,0,1-5-6V82a7,7,0,0,0-7-7H248a7,7,0,0,0-7,7v25a7,7,0,0,1-5,6,164,164,0,0,0-48,20,7,7,0,0,1-8-1l-17-17a7,7,0,0,0-9,0l-38,38a7,7,0,0,0,0,9l17,17a7,7,0,0,1,1,8,164,164,0,0,0-20,48,7,7,0,0,1-6,5H83a7,7,0,0,0-7,7v53a7,7,0,0,0,7,7h25a7,7,0,0,1,6,5,164,164,0,0,0,20,48,7,7,0,0,1-1,8l-17,17a7,7,0,0,0,0,9l38,38a7,7,0,0,0,9,0l17-17a7,7,0,0,1,8-1,164,164,0,0,0,48,20,7,7,0,0,1,5,6v25a7,7,0,0,0,7,7h53a7,7,0,0,0,7-7V442a7,7,0,0,1,5-6,164,164,0,0,0,48-20,7,7,0,0,1,8,1l17,17a7,7,0,0,0,9,0l38-38a7,7,0,0,0,0-9l-17-17a7,7,0,0,1-1-8,164,164,0,0,0,20-48,7,7,0,0,1,6-5h25a7,7,0,0,0,7-7V247A7,7,0,0,0,467,241ZM275,408A132,132,0,1,1,407,275,132,132,0,0,1,275,408Z" transform="translate(-24 -24)"/>
      <text class="cls-3" transform="translate(148 288)">&lt;/&gt;</text>
    </g>
  </g>
</svg>
