<?xml version="1.0" encoding="utf-8"?>
<!-- Generator: Adobe Illustrator 19.2.1, SVG Export Plug-In . SVG Version: 6.00 Build 0)  -->
<svg version="1.1" id="Layer_1" xmlns="http://www.w3.org/2000/svg" xmlns:xlink="http://www.w3.org/1999/xlink" x="0px" y="0px"
	 viewBox="0 0 1112.9 953.6" style="enable-background:new 0 0 1112.9 953.6;" xml:space="preserve">
<style type="text/css">
	.st0{display:none;fill:#B74E23;stroke:#000000;stroke-width:0.9342;stroke-miterlimit:10;}
	.st1{opacity:9.000000e-02;}
	.st2{fill:url(#SVGID_1_);}
	.st3{fill:#F6F6F6;}
	.st4{fill:none;}
	.st5{fill:url(#gradient-overlay_1_);}
</style>
<polyline class="st0" points="240.1,1102.7 -89.9,1102.7 -89.9,-55.4 1188.2,-55.4 1188.2,1102.7 240.1,1102.7 "/>
<g id="round-gradient" class="st1">
	
		<linearGradient id="SVGID_1_" gradientUnits="userSpaceOnUse" x1="140.2436" y1="587.6556" x2="940.078" y2="587.6556" gradientTransform="matrix(0.8932 1.0877 -1.0906 0.8956 714.8724 -560.8915)">
		<stop  offset="0" style="stop-color:#FFFFFF"/>
		<stop  offset="1" style="stop-color:#B74F27;stop-opacity:0"/>
	</linearGradient>
	<path class="st2" d="M936.5,189.8l50,60.9c183.5,223.4,150.8,553.4-72.9,737.2l0,0c-223.7,183.7-553.8,151.6-737.3-71.8l-50-60.9
		C-57.1,631.7-24.5,301.7,199.2,118l0,0C423-65.8,753-33.6,936.5,189.8z"/>
</g>
<rect id="top_1_" x="156.5" y="228.7" transform="matrix(0.9981 -6.100303e-02 6.100303e-02 0.9981 -17.0583 32.8837)" class="st3" width="747" height="134.2"/>
<rect id="footer" x="187.6" y="840" transform="matrix(0.9988 -4.989035e-02 4.989035e-02 0.9988 -43.1821 29.1089)" class="st3" width="747.8" height="79.1"/>
<rect id="left-box_1_" x="217.8" y="450.6" transform="matrix(0.9949 -0.1012 0.1012 0.9949 -62.7481 39.5328)" class="st3" width="280.5" height="374.6"/>
<g>
	<polygon class="st3" points="867.6,429.8 587.1,431.5 587.7,529.8 868.2,522.4 	"/>
	<polygon class="st3" points="588,577.2 589.4,806.1 869.9,804.4 868.6,589.7 	"/>
</g>
<path class="st4" d="M870.9,522.3l-285.2,7.6L870.9,522.3z"/>
<polyline class="st4" points="868.9,589.7 583.8,577 585.7,529.9 "/>
<linearGradient id="gradient-overlay_1_" gradientUnits="userSpaceOnUse" x1="-87.4543" y1="-976.761" x2="810.768" y2="-976.761" gradientTransform="matrix(4.489700e-11 1 -1 4.489700e-11 -426.1032 106.2989)">
	<stop  offset="0" style="stop-color:#FFFFFF;stop-opacity:0"/>
	<stop  offset="7.479671e-02" style="stop-color:#B74F27;stop-opacity:0.1"/>
	<stop  offset="1" style="stop-color:#B74F27;stop-opacity:0.4"/>
</linearGradient>
<polygon id="gradient-overlay" class="st5" points="132.1,197.6 969.2,197.6 969.2,953.6 132.1,953.6 "/>
</svg>
