<?xml version="1.0" encoding="utf-8"?>
<!-- Generator: Adobe Illustrator 19.1.0, SVG Export Plug-In . SVG Version: 6.00 Build 0)  -->
<svg version="1.1" id="Layer_1" xmlns="http://www.w3.org/2000/svg" xmlns:xlink="http://www.w3.org/1999/xlink" x="0px" y="0px"
	viewBox="0 0 211 32" style="enable-background:new 0 0 211 32;" xml:space="preserve">
<style type="text/css">
	.st0{display:none;fill:#E94813;}
	.st1{fill:#f5f4e6;}
	.st2{font-family:'Bahiana-Regular';}
	.st3{font-size:30.0134px;}
	.st4{font-size:30.0146px;}
	.st5{font-size:30.0131px;}
	.st6{font-size:30.0156px;}
	.st7{font-size:30.0149px;}
</style>
<g id="slightly_askew_web_design">
	<rect x="0.9" y="-0.3" class="st0" width="210.7" height="32.3" />
	<g>
		<text transform="matrix(0.9989 4.606178e-02 -4.606178e-02 0.9989 66.2542 26.4696)" class="st1 st2 st3">A</text>
	</g>
	<g>
		<text transform="matrix(1 2.120000e-03 -2.120000e-03 1 32.2141 24.5869)" class="st1 st2 st4">h</text>
	</g>
	<g>
		<text transform="matrix(0.9989 4.606178e-02 -4.606178e-02 0.9989 47.5312 25.4934)" class="st1 st2 st3">l</text>
	</g>
	<g>
		<text transform="matrix(0.9999 -1.013049e-02 1.013049e-02 0.9999 22.7898 24.6201)" class="st1 st2 st5">g</text>
	</g>
	<g>
		<text transform="matrix(0.999 4.547842e-02 -4.547842e-02 0.999 40.8763 24.8759)" class="st1 st2 st6">t</text>
	</g>
	<g>
		<text transform="matrix(0.9989 4.606178e-02 -4.606178e-02 0.9989 54.6231 25.8889)" class="st1 st2 st3">y</text>
	</g>
	<g>
		<text transform="matrix(1 -5.600000e-03 5.600000e-03 1 0.9005 24.6988)" class="st1 st2 st4">sli</text>
	</g>
	<g>
		<text transform="matrix(0.9969 7.870000e-02 -7.870000e-02 0.9969 73.2983 26.4651)" class="st1 st2 st4">skew</text>
	</g>
	<g>
		<text transform="matrix(0.9999 -1.013049e-02 1.013049e-02 0.9999 141.455 29.1423)" class="st1 st2 st5">b</text>
	</g>
	<g>
		<text transform="matrix(1 -5.600000e-03 5.600000e-03 1 120.4105 29.2198)" class="st1 st2 st4">we</text>
	</g>
	<g>
		<text transform="matrix(1 0 0 1 156.2999 29.4337)" class="st1 st2 st7">Design</text>
	</g>
</g>
</svg>
