<?xml version="1.0" encoding="utf-8"?>
<!-- Generator: Adobe Illustrator 19.1.0, SVG Export Plug-In . SVG Version: 6.00 Build 0)  -->
<svg version="1.1" id="tf-logo" xmlns="http://www.w3.org/2000/svg" xmlns:xlink="http://www.w3.org/1999/xlink" x="0px" y="0px"
	 viewBox="-87 31 824 740" style="enable-background:new -87 31 824 740;" xml:space="preserve">
<style type="text/css">
	.st0{display:none;}
	.st1{display:inline;fill:none;stroke:#00A651;stroke-width:0.1;}
	.st2{display:inline;fill:#CB4B27;}
	.st3{fill:#DBD8D7;}
	.st4{fill:#CC4B27;}
</style>
<g id="guides" class="st0">
	<line class="st1" x1="732" y1="-90" x2="732" y2="910"/>
	<line class="st1" x1="682" y1="-90" x2="682" y2="910"/>
	<line class="st1" x1="682" y1="-90" x2="682" y2="910"/>
	<line class="st1" x1="632" y1="-90" x2="632" y2="910"/>
	<line class="st1" x1="632" y1="-90" x2="632" y2="910"/>
	<line class="st1" x1="582" y1="-90" x2="582" y2="910"/>
	<line class="st1" x1="582" y1="-90" x2="582" y2="910"/>
	<line class="st1" x1="532" y1="-90" x2="532" y2="910"/>
	<line class="st1" x1="532" y1="-90" x2="532" y2="910"/>
	<line class="st1" x1="482" y1="-90" x2="482" y2="910"/>
	<line class="st1" x1="482" y1="-90" x2="482" y2="910"/>
	<line class="st1" x1="432" y1="-90" x2="432" y2="910"/>
	<line class="st1" x1="432" y1="-90" x2="432" y2="910"/>
	<line class="st1" x1="382" y1="-90" x2="382" y2="910"/>
	<line class="st1" x1="382" y1="-90" x2="382" y2="910"/>
	<line class="st1" x1="332" y1="-90" x2="332" y2="910"/>
	<line class="st1" x1="332" y1="-90" x2="332" y2="910"/>
	<line class="st1" x1="282" y1="-90" x2="282" y2="910"/>
	<line class="st1" x1="282" y1="-90" x2="282" y2="910"/>
	<line class="st1" x1="232" y1="-90" x2="232" y2="910"/>
	<line class="st1" x1="232" y1="-90" x2="232" y2="910"/>
	<line class="st1" x1="182" y1="-90" x2="182" y2="910"/>
	<line class="st1" x1="182" y1="-90" x2="182" y2="910"/>
	<line class="st1" x1="132" y1="-90" x2="132" y2="910"/>
	<line class="st1" x1="132" y1="-90" x2="132" y2="910"/>
	<line class="st1" x1="82" y1="-90" x2="82" y2="910"/>
	<line class="st1" x1="82" y1="-90" x2="82" y2="910"/>
	<line class="st1" x1="32" y1="-90" x2="32" y2="910"/>
	<line class="st1" x1="32" y1="-90" x2="32" y2="910"/>
	<line class="st1" x1="-18" y1="-90" x2="-18" y2="910"/>
	<line class="st1" x1="-18" y1="-90" x2="-18" y2="910"/>
	<line class="st1" x1="-68" y1="-90" x2="-68" y2="910"/>
	<line class="st1" x1="-168" y1="810" x2="832" y2="810"/>
	<line class="st1" x1="-168" y1="760" x2="832" y2="760"/>
	<line class="st1" x1="-168" y1="760" x2="832" y2="760"/>
	<line class="st1" x1="-168" y1="710" x2="832" y2="710"/>
	<line class="st1" x1="-168" y1="710" x2="832" y2="710"/>
	<line class="st1" x1="-168" y1="660" x2="832" y2="660"/>
	<line class="st1" x1="-168" y1="660" x2="832" y2="660"/>
	<line class="st1" x1="-168" y1="610" x2="832" y2="610"/>
	<line class="st1" x1="-168" y1="610" x2="832" y2="610"/>
	<line class="st1" x1="-168" y1="560" x2="832" y2="560"/>
	<line class="st1" x1="-168" y1="560" x2="832" y2="560"/>
	<line class="st1" x1="-168" y1="510" x2="832" y2="510"/>
	<line class="st1" x1="-168" y1="510" x2="832" y2="510"/>
	<line class="st1" x1="-168" y1="460" x2="832" y2="460"/>
	<line class="st1" x1="-168" y1="460" x2="832" y2="460"/>
	<line class="st1" x1="-168" y1="410" x2="832" y2="410"/>
	<line class="st1" x1="-168" y1="410" x2="832" y2="410"/>
	<line class="st1" x1="-168" y1="360" x2="832" y2="360"/>
	<line class="st1" x1="-168" y1="360" x2="832" y2="360"/>
	<line class="st1" x1="-168" y1="310" x2="832" y2="310"/>
	<line class="st1" x1="-168" y1="310" x2="832" y2="310"/>
	<line class="st1" x1="-168" y1="260" x2="832" y2="260"/>
	<line class="st1" x1="-168" y1="260" x2="832" y2="260"/>
	<line class="st1" x1="-168" y1="210" x2="832" y2="210"/>
	<line class="st1" x1="-168" y1="210" x2="832" y2="210"/>
	<line class="st1" x1="-168" y1="160" x2="832" y2="160"/>
	<line class="st1" x1="-168" y1="160" x2="832" y2="160"/>
	<line class="st1" x1="-168" y1="110" x2="832" y2="110"/>
	<line class="st1" x1="-168" y1="110" x2="832" y2="110"/>
	<line class="st1" x1="-168" y1="60" x2="832" y2="60"/>
	<line class="st1" x1="-168" y1="60" x2="832" y2="60"/>
	<line class="st1" x1="-168" y1="10" x2="832" y2="10"/>
</g>
<g id="background" class="st0">
	<rect x="-68" y="10" class="st2" width="800" height="800"/>
</g>
<rect id="top_1_" x="-76.7" y="33.9" transform="matrix(-1 7.140535e-03 -7.140535e-03 -1 663.0681 208.9362)" class="st3" width="815.7" height="143.5"/>
<rect id="footer" x="-91.8" y="688.6" transform="matrix(-1 -4.033728e-03 4.033728e-03 -1 653.556 1463.1293)" class="st3" width="840.1" height="84.6"/>
<rect x="-68.5" y="311.2" transform="matrix(4.765410e-02 0.9989 -0.9989 4.765410e-02 586.1965 307.4839)" class="st3" width="400.7" height="300"/>
<rect id="right_col" x="379.1" y="259.8" transform="matrix(0.9974 7.249294e-02 -7.249294e-02 0.9974 34.763 -37.1441)" class="st3" width="300" height="401.1"/>
<rect id="right_col_indent" x="380.3" y="346.4" transform="matrix(-0.9963 -8.572673e-02 8.572673e-02 -0.9963 1033.266 803.4467)" class="st4" width="307.2" height="66.3"/>
</svg>
