<?xml version="1.0" encoding="utf-8"?>
<!-- Generator: Adobe Illustrator 19.1.0, SVG Export Plug-In . SVG Version: 6.00 Build 0)  -->
<svg version="1.1" id="tf-logo" xmlns="http://www.w3.org/2000/svg" xmlns:xlink="http://www.w3.org/1999/xlink" x="0px" y="0px"
	 viewBox="0 0 800 800" enable-background="new 0 0 800 800" xml:space="preserve">

<g id="footer_3">
		<rect id="footer_2" x="50" y="683.2" transform="matrix(0.9986 5.212150e-02 -5.212150e-02 0.9986 37.4579 -19.8859)" fill="#333333" width="700" height="50"/>
	
		<rect id="footer_1" x="48.8" y="707.5" transform="matrix(1 -1.384362e-03 1.384362e-03 1 -0.9928 0.5527)" fill="#333333" width="700" height="19.8"/>
	
		<rect id="footer_slice_left" x="41.4" y="646.1" transform="matrix(-0.9948 -0.102 0.102 -0.9948 22.3258 1378.7899)" fill="#F26323" width="10" height="85.5"/>
	<rect id="footer_slice_right" x="744.3" y="680.6" fill="#CC4B27" width="10" height="85.5"/>
</g>
<rect id="left_col" x="73.4" y="214" transform="matrix(0.9976 6.929237e-02 -6.929237e-02 0.9976 30.3413 -14.3805)" fill="#333333" width="298.1" height="432.3"/>
<rect id="right_col" x="426.1" y="217" transform="matrix(-0.9983 5.883363e-02 -5.883363e-02 -0.9983 1177.0658 826.924)" fill="#333333" width="300.6" height="427.6"/>
<rect id="right_col_indent" x="383.8" y="292.7" transform="matrix(0.98 -0.1992 0.1992 0.98 -52.4136 107.5988)" fill="#CC4B27" width="249.5" height="43.2"/>
<rect id="top_right_-_right_col_indent" x="419.9" y="274.3" transform="matrix(0.9962 -8.652806e-02 8.652806e-02 0.9962 -23.0062 46.9735)" fill="#333333" width="220.9" height="29.2"/>
<rect id="top-right_slice" x="77.1" y="206.6" transform="matrix(0.9961 8.771327e-02 -8.771327e-02 0.9961 19.3821 -19.5566)" fill="#CC4B27" width="310.2" height="8.4"/>
<rect id="top-right_slice_1_" x="407.3" y="213.9" transform="matrix(0.9966 -8.224417e-02 8.224417e-02 0.9966 -15.7923 46.9828)" fill="#CC4B27" width="310.2" height="2.6"/>
<polygon id="top-right_slice_4_" fill="#CC4B27" points="715.5,210 663.5,211.2 665.4,200.4 717.5,199.2 "/>
<g id="header">
	
		<rect id="top-header" x="49.4" y="89.3" transform="matrix(1 -9.402553e-03 9.402553e-03 1 -0.9395 3.7599)" fill="#333333" width="700" height="25"/>
	
		<rect id="btm-header" x="50.9" y="157.1" transform="matrix(1 -9.402553e-03 9.402553e-03 1 -1.5769 3.777)" fill="#333333" width="700" height="25"/>
	
		<rect id="mid-header" x="50.6" y="121.2" transform="matrix(0.999 -4.440857e-02 4.440857e-02 0.999 -6.0953 17.9343)" fill="#333333" width="700" height="50"/>
	
		<rect id="mid-header_1_" x="49.7" y="80.7" transform="matrix(0.999 -4.440857e-02 4.440857e-02 0.999 -4.2977 17.8543)" fill="#333333" width="700" height="50"/>
	
		<rect id="header_slice_right" x="743" y="50.6" transform="matrix(0.9942 -0.1071 0.1071 0.9942 -8.256 80.9609)" fill="#CC4B27" width="13.5" height="133.5"/>
	
		<rect id="header_slice_left" x="46.1" y="77.6" transform="matrix(0.9979 6.524395e-02 -6.524395e-02 0.9979 8.9926 -3.1587)" fill="#CC4B27" width="13.5" height="117"/>
</g>
<rect id="top_left_-_left_col" x="415.1" y="223.1" transform="matrix(0.9972 -7.515955e-02 7.515955e-02 0.9972 -19.3621 32.1966)" fill="#CC4B27" width="6" height="100.5"/>
<rect id="bottom_right_-_right_col" x="739.4" y="548.9" transform="matrix(0.9996 2.955702e-02 -2.955702e-02 0.9996 17.9114 -21.7008)" fill="#CC4B27" width="7.1" height="92.3"/>
<rect id="bottom_right_-_left_col" x="370.9" y="351.9" transform="matrix(0.9943 0.1065 -0.1065 0.9943 56.0031 -37.188)" fill="#CC4B27" width="10.4" height="307.6"/>
<rect id="bottom_left_-_left_col" x="61.8" y="338.3" transform="matrix(0.9997 2.477457e-02 -2.477457e-02 0.9997 12.21 -1.4456)" fill="#CC4B27" width="5.2" height="307.6"/>
<rect id="top_left_-_left_col_1_" x="68.4" y="185.9" transform="matrix(0.9923 0.1239 -0.1239 0.9923 42.6158 -6.1845)" fill="#CC4B27" width="5.2" height="307.6"/>
<rect id="bottom_left_-_header" x="399.4" y="-165.1" transform="matrix(-2.347360e-02 0.9997 -0.9997 -2.347360e-02 605.5259 -211.7094)" fill="#CB4B27" width="13.6" height="709.9"/>
<rect id="top_right_-_header" x="453.1" y="-171.4" transform="matrix(8.378033e-03 1 -1 8.378033e-03 531.7728 -395.5876)" fill="#CC4B27" width="24.5" height="483.5"/>
<rect id="top_right_square_-_header" x="694.7" y="50.6" fill="#CC4B27" width="33.5" height="30"/>
<polygon id="top_right_triangle_-_header" fill="#333333" points="704.5,92.3 734.1,68.3 732.8,106.4 "/>
<rect id="top_right_square_-_header_1_" x="721.9" y="48" fill="#CC4B27" width="33.5" height="30"/>
<polygon id="bottom_left_triangle_-_header" fill="#333333" points="28.8,712.5 83.9,712.2 56.8,760.2 "/>
<rect id="bottom_left_square_-_header_1_" x="47.4" y="728.6" transform="matrix(-0.999 -4.492028e-02 4.492028e-02 -0.999 91.9537 1483.0916)" fill="#CC4B27" width="30.5" height="23.9"/>
<rect id="bottom_left_square_-_header" x="23.9" y="643.6" transform="matrix(-0.9971 7.640956e-02 -7.640956e-02 -0.9971 137.3681 1404.7606)" fill="#CC4B27" width="35.8" height="122.8"/>
<rect id="bottom_left_slice_-_header" x="221.2" y="-9.8" transform="matrix(4.014233e-02 -0.9992 0.9992 4.014233e-02 34.8527 404.6576)" display="none" fill="#F26323" width="13.7" height="388"/>
<rect id="bottom_right_slice_-_header" x="556.8" y="12.9" transform="matrix(-3.111381e-02 -0.9995 0.9995 -3.111381e-02 395.1054 769.7631)" fill="#CC4B27" width="27.7" height="360.9"/>
</svg>
